<svg width="22" height="22" viewBox="0 0 22 22" fill="none" xmlns="http://www.w3.org/2000/svg">
<path fill-rule="evenodd" clip-rule="evenodd" d="M21.7071 9.87868C22.0976 10.2692 22.0976 10.9024 21.7071 11.2929C21.3166 11.6834 20.6834 11.6834 20.2929 11.2929L11.9103 2.91025C11.9129 2.93977 11.9142 2.96965 11.9142 2.99985L11.9142 20.9998C11.9142 21.5521 11.4665 21.9998 10.9142 21.9998C10.3619 21.9998 9.91421 21.5521 9.91421 20.9998L9.91421 3.08579L1.70711 11.2929C1.31658 11.6834 0.683418 11.6834 0.292893 11.2929C-0.0976312 10.9024 -0.0976311 10.2692 0.292893 9.87868L9.58579 0.585786C10.3668 -0.195264 11.6332 -0.19526 12.4142 0.585787L21.7071 9.87868ZM10.9968 2.00321C10.9991 2.0034 11.0015 2.0036 11.0038 2.00381L11 2L10.9968 2.00321Z" fill="white"/>
</svg>
