<svg width="24" height="24" viewBox="0 0 24 24" fill="none" xmlns="http://www.w3.org/2000/svg">
<g clip-path="url(#clip0_568_3156)">
<path fill-rule="evenodd" clip-rule="evenodd" d="M18.3625 6.69516C18.6554 6.40227 18.6554 5.92739 18.3625 5.6345C18.0696 5.34161 17.5948 5.34161 17.3019 5.6345L11.9978 10.9386L6.69692 5.63766C6.40403 5.34477 5.92916 5.34477 5.63626 5.63766C5.34337 5.93055 5.34337 6.40543 5.63626 6.69832L10.9372 11.9992L5.6346 17.3018C5.34171 17.5947 5.34171 18.0695 5.6346 18.3624C5.9275 18.6553 6.40237 18.6553 6.69526 18.3624L11.9978 13.0599L17.3035 18.3656C17.5964 18.6585 18.0713 18.6585 18.3642 18.3656C18.6571 18.0727 18.6571 17.5978 18.3642 17.3049L13.0585 11.9992L18.3625 6.69516Z" fill="#201F1D"/>
</g>
<defs>
<clipPath id="clip0_568_3156">
<rect width="24" height="24" fill="white"/>
</clipPath>
</defs>
</svg>
